<?xml version="1.0" standalone="no"?>
<!DOCTYPE svg PUBLIC "-//W3C//DTD SVG 20010904//EN"
 "http://www.w3.org/TR/2001/REC-SVG-20010904/DTD/svg10.dtd">
<svg version="1.0" xmlns="http://www.w3.org/2000/svg"
 width="500.000000pt" height="500.000000pt" viewBox="0 0 500.000000 500.000000"
 preserveAspectRatio="xMidYMid meet">
<metadata>
Created by potrace 1.14, written by Peter Selinger 2001-2017
</metadata>
<g transform="translate(0.000000,500.000000) scale(0.100000,-0.100000)"
fill="#000000" stroke="none">
<path d="M2298 4985 c-1 -2 -34 -6 -73 -10 -38 -3 -77 -8 -85 -10 -8 -3 -33
-7 -55 -11 -32 -4 -156 -30 -235 -49 -8 -2 -60 -18 -115 -36 -55 -18 -102 -33
-105 -34 -3 -1 -14 -5 -25 -10 -165 -67 -237 -100 -280 -130 -16 -11 -32 -19
-35 -19 -8 3 -201 -115 -235 -143 -5 -5 -26 -19 -45 -33 -19 -13 -37 -27 -40
-30 -3 -3 -27 -23 -55 -45 -80 -64 -103 -85 -194 -177 -112 -113 -141 -146
-141 -158 0 -6 -4 -10 -8 -10 -5 0 -21 -18 -38 -41 -16 -22 -34 -46 -41 -54
-34 -37 -158 -234 -210 -335 -80 -153 -173 -388 -198 -500 -51 -221 -55 -244
-73 -400 -9 -85 -8 -415 2 -510 4 -41 16 -120 26 -175 25 -128 25 -129 44
-196 9 -31 18 -65 21 -75 16 -78 108 -302 176 -431 61 -116 147 -257 160 -261
5 -2 9 -8 9 -13 0 -10 81 -118 150 -199 63 -74 162 -173 250 -250 41 -36 77
-67 80 -70 28 -29 253 -181 340 -228 164 -90 392 -187 510 -217 8 -2 60 -15
115 -30 100 -26 116 -29 190 -40 23 -3 52 -8 65 -10 98 -20 464 -27 610 -12
83 9 208 30 285 47 28 7 61 14 75 16 14 3 92 27 174 55 235 79 427 174 630
313 100 67 98 66 216 168 407 351 682 811 801 1341 10 48 22 105 25 125 3 20
7 44 9 52 26 98 26 556 0 705 -3 17 -8 46 -11 65 -12 71 -15 86 -30 150 -9 36
-17 70 -18 75 -1 6 -5 16 -9 23 -5 6 -6 12 -3 12 7 0 -54 179 -94 275 -66 159
-217 427 -297 525 -7 8 -34 42 -60 75 -73 92 -264 295 -278 295 -2 0 -19 14
-37 31 -149 138 -437 317 -668 414 -145 61 -418 142 -540 159 -19 2 -57 8 -85
11 -27 4 -61 9 -75 12 -28 6 -466 13 -472 8z"/>
</g>
</svg>
